<svg width="15" height="19" viewBox="0 0 15 19" fill="none" xmlns="http://www.w3.org/2000/svg">
<path d="M9.18874 17.8307L4.53 0.444081C4.28404 0.991289 4.01654 1.65054 3.77116 2.39083C3.04223 4.58989 2.54431 7.3956 3.26512 10.0857C4.06536 13.0723 4.89528 15.5512 6.00993 17.1354C6.23167 17.4506 6.45747 17.7195 6.68805 17.9451C7.41882 18.0621 8.24611 18.0323 9.18874 17.8307Z" fill="white"/>
<path d="M5.55587 0.1692L10.2146 17.5559C11.1318 17.2591 11.8631 16.8713 12.4374 16.4045C12.5243 16.0939 12.5854 15.7481 12.6199 15.3643C12.7931 13.435 12.2724 10.8732 11.4721 7.88665C10.7513 5.19655 8.91723 3.01569 7.18643 1.47571C6.60377 0.957297 6.04249 0.520113 5.55587 0.1692Z" fill="white"/>
<path d="M2.23925 10.3606C2.95558 13.034 3.72945 15.4482 4.77673 17.1858C2.90088 15.8935 1.90619 13.2211 1.07593 10.1225C0.328052 7.33142 1.50186 4.33542 2.7177 2.19508C1.98112 4.47095 1.45816 7.44555 2.23925 10.3606Z" fill="white"/>
<path d="M13.3864 6.82395C14.2167 9.92251 14.6914 12.7342 13.713 14.7913C13.7512 12.7628 13.2143 10.2852 12.498 7.61177C11.7169 4.69673 9.7767 2.38213 8.00087 0.779453C10.124 2.02512 12.6385 4.03283 13.3864 6.82395Z" fill="white"/>
</svg>
