<svg width="24" height="24" viewBox="0 0 24 24" fill="none" xmlns="http://www.w3.org/2000/svg">
<path d="M14.1887 20.8307L9.53 3.44408C9.28404 3.99129 9.01654 4.65054 8.77116 5.39083C8.04223 7.58989 7.54431 10.3956 8.26512 13.0857C9.06536 16.0723 9.89528 18.5512 11.0099 20.1354C11.2317 20.4506 11.4575 20.7195 11.688 20.9451C12.4188 21.0621 13.2461 21.0323 14.1887 20.8307Z" fill="#4D4D4D"/>
<path d="M10.5559 3.1692L15.2146 20.5559C16.1318 20.2591 16.8631 19.8713 17.4374 19.4045C17.5243 19.0939 17.5854 18.7481 17.6199 18.3643C17.7931 16.435 17.2724 13.8732 16.4721 10.8867C15.7513 8.19655 13.9172 6.01569 12.1864 4.47571C11.6038 3.9573 11.0425 3.52011 10.5559 3.1692Z" fill="#4D4D4D"/>
<path d="M7.23925 13.3606C7.95558 16.034 8.72945 18.4482 9.77673 20.1858C7.90088 18.8935 6.90619 16.2211 6.07593 13.1225C5.32805 10.3314 6.50186 7.33542 7.7177 5.19508C6.98112 7.47095 6.45816 10.4455 7.23925 13.3606Z" fill="#4D4D4D"/>
<path d="M18.3864 9.82395C19.2167 12.9225 19.6914 15.7342 18.713 17.7913C18.7512 15.7628 18.2143 13.2852 17.498 10.6118C16.7169 7.69673 14.7767 5.38213 13.0009 3.77945C15.124 5.02512 17.6385 7.03283 18.3864 9.82395Z" fill="#4D4D4D"/>
</svg>
