<svg width="121" height="33" viewBox="0 0 121 33" fill="none" xmlns="http://www.w3.org/2000/svg">
<path d="M9 32.48C6.97333 32.48 5.30667 32 4 31.04C2.72 30.08 1.77333 28.84 1.16 27.32C0.573333 25.8 0.28 24.2267 0.28 22.6C0.28 20.4933 0.6 18.3867 1.24 16.28C1.88 14.1467 2.76 12.12 3.88 10.2C5.02667 8.28 6.32 6.57333 7.76 5.08C9.2 3.58666 10.7333 2.41333 12.36 1.56C14.0133 0.679998 15.6533 0.239998 17.28 0.239998C18.4533 0.239998 19.44 0.519999 20.24 1.08C21.04 1.61333 21.44 2.54667 21.44 3.88C21.44 4.68 21.2933 5.57333 21 6.56C20.7333 7.54666 20.36 8.50667 19.88 9.44C19.4267 10.3467 18.9067 11.0933 18.32 11.68C17.7333 12.2667 17.1333 12.56 16.52 12.56C16.2533 12.56 15.9733 12.4667 15.68 12.28C15.3867 12.0933 15.12 11.7733 14.88 11.32C15.28 10.8667 15.7333 10.32 16.24 9.68C16.7467 9.01333 17.2267 8.32 17.68 7.6C18.1333 6.85333 18.5067 6.13333 18.8 5.44C19.0933 4.72 19.24 4.09333 19.24 3.56C19.24 3.08 19.1067 2.70667 18.84 2.44C18.5733 2.14667 18.1067 2 17.44 2C16.2667 2 15.0533 2.44 13.8 3.32C12.5733 4.2 11.3867 5.38667 10.24 6.88C9.09333 8.34667 8.05333 10 7.12 11.84C6.21333 13.6533 5.49333 15.5333 4.96 17.48C4.42667 19.4 4.16 21.2267 4.16 22.96C4.16 24.24 4.34667 25.4667 4.72 26.64C5.12 27.7867 5.74667 28.72 6.6 29.44C7.45333 30.1867 8.57333 30.56 9.96 30.56C11.4 30.56 12.8267 30.16 14.24 29.36C15.68 28.56 16.9867 27.5067 18.16 26.2C19.36 24.8933 20.32 23.4933 21.04 22L22.08 22.68C21.1467 24.4667 20.0267 26.1067 18.72 27.6C17.4133 29.0667 15.9333 30.24 14.28 31.12C12.6533 32.0267 10.8933 32.48 9 32.48ZM28.4938 30.04C27.5071 30.04 26.7071 29.7733 26.0938 29.24C25.4804 28.7333 25.1738 28.04 25.1738 27.16C25.1738 26.4133 25.3604 25.6133 25.7338 24.76C26.1071 23.9067 26.4804 23.0667 26.8538 22.24C27.2538 21.4133 27.4538 20.68 27.4538 20.04C27.4538 19.4267 27.2538 18.92 26.8538 18.52C26.4538 18.0933 25.9871 17.7467 25.4538 17.48C24.8671 18.9467 24.2004 20.3733 23.4538 21.76C22.7338 23.12 22.1471 24.1867 21.6938 24.96L21.0938 23.8C21.4671 23.1067 21.9604 22.12 22.5738 20.84C23.1871 19.56 23.7738 18.1333 24.3338 16.56C24.0671 16.2933 23.9338 15.9333 23.9338 15.48C23.9338 14.7867 24.1471 14.1333 24.5738 13.52C25.0004 12.9067 25.4138 12.6 25.8138 12.6C26.1338 12.6 26.3604 12.7867 26.4938 13.16C26.6538 13.5067 26.7338 13.7467 26.7338 13.88C26.7338 14.0133 26.6671 14.2533 26.5338 14.6C26.4271 14.9467 26.3471 15.2 26.2938 15.36C26.3204 15.6533 26.5471 15.9467 26.9737 16.24C27.4271 16.5067 27.9338 16.8267 28.4938 17.2C29.0538 17.5733 29.5471 18.04 29.9738 18.6C30.4004 19.16 30.6138 19.8667 30.6138 20.72C30.6138 21.4933 30.4404 22.28 30.0938 23.08C29.7471 23.88 29.4004 24.6267 29.0538 25.32C28.7071 26.0133 28.5338 26.6133 28.5338 27.12C28.5338 27.4933 28.6271 27.7467 28.8138 27.88C29.0271 27.9867 29.2671 28.04 29.5338 28.04C30.1738 28.04 30.8404 27.8533 31.5338 27.48C32.2271 27.08 32.9071 26.5733 33.5738 25.96C34.2404 25.3467 34.8271 24.7067 35.3338 24.04C35.8404 23.3467 36.2271 22.72 36.4938 22.16L37.4538 22.88C36.9471 24.0267 36.2138 25.16 35.2538 26.28C34.2938 27.3733 33.2271 28.28 32.0538 29C30.8804 29.6933 29.6938 30.04 28.4938 30.04ZM38.865 30.88C37.985 30.88 37.225 30.5867 36.585 30C35.9183 29.4133 35.585 28.5333 35.585 27.36C35.585 26.4267 35.7983 25.4133 36.225 24.32C36.6517 23.2267 37.2383 22.1467 37.985 21.08C38.7317 20.0133 39.585 19.0533 40.545 18.2C41.505 17.32 42.5317 16.6133 43.625 16.08C44.7183 15.5467 45.8117 15.28 46.905 15.28C48.0517 15.28 49.025 15.5733 49.825 16.16C50.625 16.7467 51.025 17.52 51.025 18.48C51.025 19.2 50.7717 19.72 50.265 20.04C49.7583 20.36 49.1583 20.4533 48.465 20.32C48.5183 20.08 48.5583 19.84 48.585 19.6C48.6383 19.36 48.665 19.1067 48.665 18.84C48.665 18.3067 48.5583 17.8267 48.345 17.4C48.1317 16.9733 47.6783 16.76 46.985 16.76C46.2383 16.76 45.4783 17.0133 44.705 17.52C43.9317 18.0267 43.185 18.6933 42.465 19.52C41.7717 20.32 41.145 21.2133 40.585 22.2C40.025 23.16 39.585 24.1067 39.265 25.04C38.945 25.9733 38.785 26.8133 38.785 27.56C38.785 28.4133 39.0917 28.84 39.705 28.84C40.3183 28.84 40.9983 28.5467 41.745 27.96C42.4917 27.3467 43.2383 26.5867 43.985 25.68C44.7583 24.7733 45.4917 23.8533 46.185 22.92C46.8783 21.96 47.4783 21.1467 47.985 20.48C48.065 20.3467 48.1717 20.28 48.305 20.28C48.4117 20.3067 48.6117 20.3733 48.905 20.48C49.225 20.56 49.5183 20.6933 49.785 20.88C50.0517 21.0667 50.185 21.3067 50.185 21.6C50.185 21.8667 50.065 22.2133 49.825 22.64C49.6117 23.04 49.345 23.4933 49.025 24C48.7317 24.48 48.465 24.9733 48.225 25.48C48.0117 25.96 47.905 26.4267 47.905 26.88C47.905 27.2267 47.9983 27.56 48.185 27.88C48.3717 28.1733 48.6783 28.32 49.105 28.32C49.745 28.32 50.6383 27.8533 51.785 26.92C52.9583 25.96 54.145 24.3467 55.345 22.08L56.105 22.84C55.465 24.28 54.6917 25.56 53.785 26.68C52.905 27.7733 51.9717 28.6267 50.985 29.24C49.9983 29.88 48.9983 30.2 47.985 30.2C46.8917 30.2 46.0783 29.8533 45.545 29.16C45.0117 28.4667 44.7183 27.72 44.665 26.92C44.665 26.8667 44.665 26.8267 44.665 26.8C44.665 26.7733 44.665 26.7467 44.665 26.72C43.5983 28 42.6117 29.0133 41.705 29.76C40.825 30.5067 39.8783 30.88 38.865 30.88ZM59.9184 31.24C58.5318 31.24 57.3851 30.8 56.4784 29.92C55.5984 29.0667 55.1584 27.7467 55.1584 25.96C55.1584 24.6533 55.4118 23.3733 55.9184 22.12C56.4251 20.8667 57.1051 19.7467 57.9584 18.76C58.8118 17.7467 59.7584 16.9467 60.7984 16.36C61.8651 15.7733 62.9451 15.48 64.0384 15.48C65.1584 15.48 65.9584 15.76 66.4384 16.32C66.9451 16.88 67.1984 17.5333 67.1984 18.28C67.1984 19.0267 67.0118 19.76 66.6384 20.48C66.2918 21.1733 65.8118 21.52 65.1984 21.52C64.6918 21.52 64.2784 21.2667 63.9584 20.76C64.2251 20.5733 64.5051 20.2267 64.7984 19.72C65.0918 19.2133 65.2384 18.56 65.2384 17.76C65.2384 17.5467 65.1851 17.3867 65.0784 17.28C64.9718 17.1467 64.7718 17.08 64.4784 17.08C63.8118 17.08 63.1051 17.3867 62.3584 18C61.6384 18.5867 60.9584 19.36 60.3184 20.32C59.7051 21.2533 59.1984 22.2533 58.7984 23.32C58.4251 24.36 58.2384 25.32 58.2384 26.2C58.2384 26.9467 58.4251 27.64 58.7984 28.28C59.1984 28.8933 59.9584 29.2 61.0784 29.2C62.0918 29.2 63.1451 28.9067 64.2384 28.32C65.3318 27.7333 66.3584 26.92 67.3184 25.88C68.2784 24.8133 69.0518 23.5467 69.6384 22.08L70.4384 22.8C69.7984 24.4267 68.9051 25.88 67.7584 27.16C66.6384 28.4133 65.3851 29.4 63.9984 30.12C62.6384 30.8667 61.2784 31.24 59.9184 31.24ZM82.3988 30.52C81.5721 30.52 80.8521 30.2533 80.2388 29.72C79.6254 29.1867 79.1321 28.52 78.7588 27.72C78.3854 26.92 78.1054 26.1067 77.9188 25.28C77.7321 24.4267 77.6388 23.6933 77.6388 23.08C78.0121 23 78.4788 22.88 79.0388 22.72C79.5988 22.56 80.1721 22.3467 80.7588 22.08C81.3454 21.7867 81.8254 21.44 82.1988 21.04C82.5988 20.6133 82.7988 20.1067 82.7988 19.52C82.7988 19.04 82.6388 18.6533 82.3188 18.36C82.0254 18.0667 81.5988 17.92 81.0388 17.92C80.2921 17.92 79.5854 18.1733 78.9188 18.68C78.2521 19.16 77.6254 19.8 77.0388 20.6C76.4788 21.4 75.9588 22.2667 75.4788 23.2C75.0254 24.1333 74.6121 25.04 74.2388 25.92C73.8921 26.8 73.5988 27.56 73.3588 28.2C73.0654 29 72.7854 29.5333 72.5188 29.8C72.2521 30.0933 71.8654 30.24 71.3588 30.24C71.1721 30.24 70.9454 30.1867 70.6788 30.08C70.4388 29.9733 70.2254 29.7067 70.0388 29.28C69.8788 28.8533 69.7988 28.1733 69.7988 27.24C69.7988 25.6133 70.0254 23.8267 70.4788 21.88C70.9321 19.9333 71.5321 17.96 72.2788 15.96C73.0521 13.9333 73.8921 12 74.7988 10.16C75.7054 8.32 76.6254 6.66667 77.5588 5.2C78.4921 3.73333 79.3588 2.57333 80.1588 1.72C80.9854 0.866665 81.6654 0.439998 82.1988 0.439998C82.6521 0.439998 83.0254 0.719999 83.3188 1.28C83.6388 1.81333 83.7988 2.50667 83.7988 3.36C83.7988 4.26666 83.5988 5.28 83.1988 6.4C82.7988 7.49333 82.2254 8.61333 81.4787 9.76C80.7588 10.88 79.8921 11.9467 78.8788 12.96C77.8654 13.9733 76.7454 14.84 75.5188 15.56C74.7721 17.2933 74.1988 19.0133 73.7988 20.72C73.3988 22.4 73.1454 23.8933 73.0388 25.2C73.5188 24.1067 74.0654 22.9867 74.6788 21.84C75.2921 20.6933 75.9721 19.6267 76.7188 18.64C77.4654 17.6267 78.2654 16.8133 79.1188 16.2C79.9988 15.5867 80.9321 15.28 81.9188 15.28C82.9854 15.28 83.9188 15.6533 84.7188 16.4C85.5188 17.1467 85.9188 18.08 85.9188 19.2C85.9188 20 85.7054 20.6933 85.2788 21.28C84.8521 21.8667 84.3188 22.36 83.6788 22.76C83.0654 23.1333 82.4388 23.4133 81.7988 23.6C81.1588 23.7867 80.6121 23.8933 80.1588 23.92C80.2388 24.2667 80.3454 24.7067 80.4788 25.24C80.6388 25.7733 80.8388 26.2933 81.0788 26.8C81.3188 27.3067 81.6254 27.7333 81.9988 28.08C82.3721 28.4267 82.8121 28.6 83.3188 28.6C83.9854 28.6 84.6654 28.2933 85.3588 27.68C86.0788 27.0667 86.7721 26.2533 87.4388 25.24C88.1321 24.2267 88.7454 23.1067 89.2788 21.88L89.8388 22.56C89.3854 23.8933 88.7588 25.1733 87.9588 26.4C87.1854 27.6267 86.3188 28.6133 85.3588 29.36C84.3988 30.1333 83.4121 30.52 82.3988 30.52ZM76.6788 12.84C77.3988 12.2 78.1588 11.4133 78.9588 10.48C79.7588 9.52 80.4388 8.50667 80.9988 7.44C81.5854 6.34667 81.8921 5.30666 81.9188 4.32C81.9188 4.29333 81.9188 4.28 81.9188 4.28C81.9188 4.25333 81.9188 4.22667 81.9188 4.2C81.6521 4.30667 81.2254 4.77333 80.6388 5.6C80.0788 6.4 79.4521 7.42667 78.7588 8.68C78.0654 9.93333 77.3721 11.32 76.6788 12.84ZM93.8353 30.76C92.1286 30.76 90.8086 30.2933 89.8753 29.36C88.9686 28.4533 88.5153 27.3067 88.5153 25.92C88.5153 24.7467 88.8086 23.5067 89.3953 22.2C90.0086 20.8667 90.822 19.6267 91.8353 18.48C92.8486 17.3067 93.9686 16.36 95.1953 15.64C96.422 14.92 97.6486 14.56 98.8753 14.56C99.5686 14.56 100.222 14.7467 100.835 15.12C101.475 15.4667 101.795 16.1733 101.795 17.24C101.795 18.2533 101.502 19.2 100.915 20.08C100.329 20.96 99.542 21.7467 98.5553 22.44C97.5686 23.1333 96.4753 23.7067 95.2753 24.16C94.102 24.5867 92.9153 24.8667 91.7153 25C91.6886 25.1067 91.662 25.2267 91.6353 25.36C91.6353 25.4667 91.6353 25.6533 91.6353 25.92C91.6353 26.0533 91.6486 26.2933 91.6753 26.64C91.7286 26.96 91.8486 27.3067 92.0353 27.68C92.222 28.0533 92.5286 28.3733 92.9553 28.64C93.382 28.9067 93.9686 29.04 94.7153 29.04C95.8353 29.04 96.9553 28.7333 98.0753 28.12C99.222 27.48 100.289 26.64 101.275 25.6C102.289 24.56 103.129 23.4 103.795 22.12L104.595 22.76C103.875 24.36 102.942 25.76 101.795 26.96C100.675 28.16 99.422 29.0933 98.0353 29.76C96.6753 30.4267 95.2753 30.76 93.8353 30.76ZM92.1553 23.52C92.8486 23.44 93.622 23.2 94.4753 22.8C95.3286 22.4 96.142 21.8933 96.9153 21.28C97.7153 20.6667 98.3686 20 98.8753 19.28C99.382 18.5333 99.6353 17.7867 99.6353 17.04C99.6353 16.7467 99.582 16.5467 99.4753 16.44C99.3686 16.3333 99.1953 16.28 98.9553 16.28C98.342 16.28 97.702 16.5067 97.0353 16.96C96.3686 17.3867 95.7153 17.96 95.0753 18.68C94.4353 19.3733 93.862 20.1467 93.3553 21C92.8486 21.8533 92.4486 22.6933 92.1553 23.52ZM111.228 30.04C110.241 30.04 109.441 29.7733 108.828 29.24C108.215 28.7333 107.908 28.04 107.908 27.16C107.908 26.4133 108.095 25.6133 108.468 24.76C108.841 23.9067 109.215 23.0667 109.588 22.24C109.988 21.4133 110.188 20.68 110.188 20.04C110.188 19.4267 109.988 18.92 109.588 18.52C109.188 18.0933 108.721 17.7467 108.188 17.48C107.601 18.9467 106.935 20.3733 106.188 21.76C105.468 23.12 104.881 24.1867 104.428 24.96L103.828 23.8C104.201 23.1067 104.695 22.12 105.308 20.84C105.921 19.56 106.508 18.1333 107.068 16.56C106.801 16.2933 106.668 15.9333 106.668 15.48C106.668 14.7867 106.881 14.1333 107.308 13.52C107.735 12.9067 108.148 12.6 108.548 12.6C108.868 12.6 109.095 12.7867 109.228 13.16C109.388 13.5067 109.468 13.7467 109.468 13.88C109.468 14.0133 109.401 14.2533 109.268 14.6C109.161 14.9467 109.081 15.2 109.028 15.36C109.055 15.6533 109.281 15.9467 109.708 16.24C110.161 16.5067 110.668 16.8267 111.228 17.2C111.788 17.5733 112.281 18.04 112.708 18.6C113.135 19.16 113.348 19.8667 113.348 20.72C113.348 21.4933 113.175 22.28 112.828 23.08C112.481 23.88 112.135 24.6267 111.788 25.32C111.441 26.0133 111.268 26.6133 111.268 27.12C111.268 27.4933 111.361 27.7467 111.548 27.88C111.761 27.9867 112.001 28.04 112.268 28.04C112.908 28.04 113.575 27.8533 114.268 27.48C114.961 27.08 115.641 26.5733 116.308 25.96C116.975 25.3467 117.561 24.7067 118.068 24.04C118.575 23.3467 118.961 22.72 119.228 22.16L120.188 22.88C119.681 24.0267 118.948 25.16 117.988 26.28C117.028 27.3733 115.961 28.28 114.788 29C113.615 29.6933 112.428 30.04 111.228 30.04Z" fill="white"/>
</svg>
