<svg width="24" height="24" viewBox="0 0 24 24" fill="none" xmlns="http://www.w3.org/2000/svg">
<path d="M10.0354 15.5508C9.45753 18.5795 8.75228 21.4832 6.66241 23C6.01678 18.4222 7.60931 14.9841 8.34892 11.3339C7.08777 9.21176 8.50037 4.94066 11.1596 5.99283C14.4317 7.28726 8.32635 13.8835 12.4245 14.7075C16.7042 15.5674 18.4514 7.28187 15.7981 4.58771C11.9637 0.696938 4.6369 4.49911 5.53765 10.0695C5.75679 11.4311 7.16354 11.8442 6.10001 13.724C3.64595 13.1794 2.91388 11.2442 3.00786 8.66391C3.15984 4.44008 6.80258 1.48326 10.457 1.074C15.0783 0.556758 19.4155 2.77019 20.0144 7.11758C20.689 12.0247 17.9288 17.3389 12.9869 16.9564C11.6473 16.8522 11.0849 16.1883 10.0354 15.5508Z" fill="#4D4D4D"/>
</svg>
